{"scene":0,"asset":{"generator":"ImageToStl.com","version":"2.0"},"scenes":[{"name":"Scene","nodes":[0]}],"nodes":[{"name":"Node0","children":[1,2]},{"name":"Node1","mesh":0},{"name":"Node2","mesh":1}],"materials":[{"name":"FrontCol","pbrMetallicRoughness":{"baseColorFactor":[0.0,0.0,0.0,1.0],"metallicFactor":0.0,"roughnessFactor":1.0},"doubleSided":true},{"name":"Location","pbrMetallicRoughness":{"baseColorFactor":[0.0,0.0,0.0,1.0],"metallicFactor":0.0,"roughnessFactor":1.0},"doubleSided":true}],"meshes":[{"name":"Mesh0","primitives":[{"indices":1,"material":0,"attributes":{"POSITION":0}}]},{"name":"Mesh0","primitives":[{"indices":3,"material":1,"attributes":{"POSITION":2}}]}],"accessors":[{"bufferView":0,"componentType":5126,"count":5015,"type":"VEC3","min":[-11328.183,-6478.3296,-510.0],"max":[5593.271,5906.0923,900.0]},{"bufferView":1,"componentType":5123,"count":29655,"type":"SCALAR"},{"bufferView":2,"componentType":5126,"count":2562,"type":"VEC3","min":[-32001.635,-6193.3247,-518.63367],"max":[-15078.505,6193.303,926.5334]},{"bufferView":3,"componentType":5123,"count":14760,"type":"SCALAR"}],"bufferViews":[{"target":34962,"buffer":0,"byteLength":60180,"byteOffset":0},{"target":34963,"buffer":0,"byteLength":59310,"byteOffset":60180},{"target":34962,"buffer":0,"byteLength":30744,"byteOffset":119492},{"target":34963,"buffer":0,"byteLength":29520,"byteOffset":150236}],"buffers":[{"byteLength":179756,"uri":"data:application/octet-stream;base64,"}]}