{"accessors" : [{"bufferView" : 0, "byteOffset" : 0, "componentType" : 5123, "count" : 14730, "type" : "SCALAR", "max" : [13178], "min" : [0]}, {"bufferView" : 1, "byteOffset" : 0, "componentType" : 5126, "count" : 13179, "type" : "VEC3", "max" : [23635.82421875, 57929.1328125, 2286], "min" : [-15016.6640625, 25504.447265625, -1447.800048828125], "name" : "POSITION"}, {"bufferView" : 1, "byteOffset" : 12, "componentType" : 5126, "count" : 13179, "type" : "VEC2", "max" : [10741.9794921875, 8200.4501953125], "min" : [-10700.2509765625, -8736.2578125], "name" : "TEXCOORD_0"}, {"bufferView" : 0, "byteOffset" : 29460, "componentType" : 5123, "count" : 4758, "type" : "SCALAR", "max" : [4545], "min" : [0]}, {"bufferView" : 2, "byteOffset" : 0, "componentType" : 5126, "count" : 4546, "type" : "VEC3", "max" : [23635.82421875, 57929.1328125, 2286], "min" : [-15016.6640625, 25504.447265625, -1447.800048828125], "name" : "POSITION"}, {"bufferView" : 2, "byteOffset" : 12, "componentType" : 5126, "count" : 4546, "type" : "VEC2", "max" : [9149.767578125, 8987.63671875], "min" : [-9070.5009765625, -8714.2529296875], "name" : "TEXCOORD_0"}, {"bufferView" : 0, "byteOffset" : 38976, "componentType" : 5123, "count" : 33, "type" : "SCALAR", "max" : [14], "min" : [0]}, {"bufferView" : 3, "byteOffset" : 0, "componentType" : 5126, "count" : 15, "type" : "VEC3", "max" : [19024.47265625, 37818.82421875, 4013.277587890625], "min" : [-12722.1748046875, 34581.25390625, -812.722412109375], "name" : "POSITION"}, {"bufferView" : 3, "byteOffset" : 12, "componentType" : 5126, "count" : 15, "type" : "VEC2", "max" : [3421.927490234375, 126.97222137451172], "min" : [-6143.09326171875, -5550.11328125], "name" : "TEXCOORD_0"}, {"bufferView" : 0, "byteOffset" : 39044, "componentType" : 5123, "count" : 3768, "type" : "SCALAR", "max" : [594], "min" : [0]}, {"bufferView" : 4, "byteOffset" : 0, "componentType" : 5126, "count" : 595, "type" : "VEC3", "max" : [21549.4375, 53441.91015625, 7442.27783203125], "min" : [-12722.1748046875, 29619.41015625, -812.722412109375], "name" : "POSITION"}, {"bufferView" : 4, "byteOffset" : 12, "componentType" : 5126, "count" : 595, "type" : "VEC2", "max" : [7641.09814453125, 2999.9296875], "min" : [-7641.09814453125, -8282.51171875], "name" : "TEXCOORD_0"}, {"bufferView" : 0, "byteOffset" : 46580, "componentType" : 5123, "count" : 60, "type" : "SCALAR", "max" : [19], "min" : [0]}, {"bufferView" : 5, "byteOffset" : 0, "componentType" : 5126, "count" : 20, "type" : "VEC3", "max" : [1091.031005859375, 49486.48046875, 1835.119140625], "min" : [-10563.73046875, 33993.90234375, -812.722412109375], "name" : "POSITION"}, {"bufferView" : 5, "byteOffset" : 12, "componentType" : 5126, "count" : 20, "type" : "VEC2", "max" : [5144.31494140625, 6960.087890625], "min" : [-5144.31494140625, -200.76687622070312], "name" : "TEXCOORD_0"}, {"bufferView" : 0, "byteOffset" : 46700, "componentType" : 5123, "count" : 12, "type" : "SCALAR", "max" : [9], "min" : [0]}, {"bufferView" : 6, "byteOffset" : 0, "componentType" : 5126, "count" : 10, "type" : "VEC3", "max" : [-6971.724609375, 49243.109375, 3429.07763671875], "min" : [-8210.5107421875, 48891.40625, 3429.07763671875], "name" : "POSITION"}, {"bufferView" : 6, "byteOffset" : 12, "componentType" : 5126, "count" : 10, "type" : "VEC2", "max" : [1, 1], "min" : [0, 0], "name" : "TEXCOORD_0"}, {"bufferView" : 0, "byteOffset" : 46724, "componentType" : 5123, "count" : 6, "type" : "SCALAR", "max" : [4], "min" : [0]}, {"bufferView" : 7, "byteOffset" : 0, "componentType" : 5126, "count" : 5, "type" : "VEC3", "max" : [6795.859375, 49321.3671875, -318.1142883300781], "min" : [6790.91357421875, 49321.3671875, -812.722412109375], "name" : "POSITION"}, {"bufferView" : 7, "byteOffset" : 12, "componentType" : 5126, "count" : 5, "type" : "VEC2", "max" : [1, 1], "min" : [0, 0], "name" : "TEXCOORD_0"}], "asset" : {"generator" : "Aspose.3D 24.6.0", "version" : "2.0"}, "buffers" : [{"uri" : "data:application/octet-stream;base64,", "byteLength" : 414168}], "bufferViews" : [{"buffer" : 0, "byteOffset" : 0, "byteLength" : 46736, "target" : 34963}, {"buffer" : 0, "byteOffset" : 46740, "byteLength" : 263580, "byteStride" : 20, "target" : 34962}, {"buffer" : 0, "byteOffset" : 310324, "byteLength" : 90920, "byteStride" : 20, "target" : 34962}, {"buffer" : 0, "byteOffset" : 401248, "byteLength" : 300, "byteStride" : 20, "target" : 34962}, {"buffer" : 0, "byteOffset" : 401552, "byteLength" : 11900, "byteStride" : 20, "target" : 34962}, {"buffer" : 0, "byteOffset" : 413456, "byteLength" : 400, "byteStride" : 20, "target" : 34962}, {"buffer" : 0, "byteOffset" : 413860, "byteLength" : 200, "byteStride" : 20, "target" : 34962}, {"buffer" : 0, "byteOffset" : 414064, "byteLength" : 100, "byteStride" : 20, "target" : 34962}], "cameras" : [{"perspective" : {"aspectRatio" : 1.3333333333333333, "yfov" : 0.43833943764363487, "zfar" : 2540, "znear" : 1}, "type" : "perspective", "name" : "Camera"}], "materials" : [{"name" : "Material", "pbrMetallicRoughness" : {"baseColorFactor" : [0.996078431372549, 1, 1, 1], "metallicFactor" : 1, "roughnessFactor" : 1}, "emissiveFactor" : [0, 0, 0], "alphaMode" : "OPAQUE", "doubleSided" : false}, {"name" : "FrontCol", "pbrMetallicRoughness" : {"baseColorFactor" : [1, 1, 1, 1], "metallicFactor" : 1, "roughnessFactor" : 1}, "emissiveFactor" : [0, 0, 0], "alphaMode" : "OPAQUE", "doubleSided" : false}, {"name" : "Materi01", "pbrMetallicRoughness" : {"baseColorFactor" : [1, 1, 1, 1], "metallicFactor" : 1, "roughnessFactor" : 1}, "emissiveFactor" : [0, 0, 0], "alphaMode" : "OPAQUE", "doubleSided" : false}, {"name" : "Materi02", "pbrMetallicRoughness" : {"baseColorFactor" : [0.10588235294117647, 0.3254901960784314, 0.5137254901960784, 1], "metallicFactor" : 1, "roughnessFactor" : 1}, "emissiveFactor" : [0, 0, 0], "alphaMode" : "OPAQUE", "doubleSided" : false}, {"name" : "Foregrou", "pbrMetallicRoughness" : {"baseColorFactor" : [0, 0, 0, 1], "metallicFactor" : 1, "roughnessFactor" : 1}, "emissiveFactor" : [0, 0, 0], "alphaMode" : "OPAQUE", "doubleSided" : false}], "meshes" : [{"primitives" : [{"attributes" : {"POSITION" : 1, "TEXCOORD_0" : 2}, "indices" : 0, "material" : 0, "mode" : 4}], "name" : "Group1"}, {"primitives" : [{"attributes" : {"POSITION" : 4, "TEXCOORD_0" : 5}, "indices" : 3, "material" : 0, "mode" : 4}], "name" : "Group2"}, {"primitives" : [{"attributes" : {"POSITION" : 7, "TEXCOORD_0" : 8}, "indices" : 6, "material" : 1, "mode" : 4}, {"attributes" : {"POSITION" : 10, "TEXCOORD_0" : 11}, "indices" : 9, "material" : 2, "mode" : 4}, {"attributes" : {"POSITION" : 13, "TEXCOORD_0" : 14}, "indices" : 12, "material" : 3, "mode" : 4}], "name" : "Mesh01"}, {"primitives" : [{"attributes" : {"POSITION" : 16, "TEXCOORD_0" : 17}, "indices" : 15, "material" : 4, "mode" : 4}], "name" : "Mesh02"}, {"primitives" : [{"attributes" : {"POSITION" : 19, "TEXCOORD_0" : 20}, "indices" : 18, "material" : 4, "mode" : 4}], "name" : "Mesh03"}], "nodes" : [{"camera" : 0, "matrix" : [1, 0, 0, 0, 0, 1, 0, 0, 0, 0, 1, 0, -17815.853515625, 5480.35693359375, 24535.494140625, 1], "name" : "Camera"}, {"mesh" : 1, "name" : "Group2"}, {"children" : [1], "mesh" : 0, "name" : "Group1"}, {"mesh" : 2, "name" : "Mesh01"}, {"mesh" : 3, "name" : "Mesh02"}, {"mesh" : 4, "name" : "Mesh03"}, {"children" : [2, 3, 4, 5], "matrix" : [-1, 0, 0, 0, 0, 0, 1, 0, 0, 1, 0, 0, 0, 0, 0, 1], "name" : "Model"}], "scene" : 0, "scenes" : [{"nodes" : [0, 6]}]}